<?xml version="1.0" encoding="iso-8859-1"?>
<!-- Generator: Adobe Illustrator 16.0.0, SVG Export Plug-In . SVG Version: 6.00 Build 0)  -->
<!DOCTYPE svg PUBLIC "-//W3C//DTD SVG 1.1//EN" "http://www.w3.org/Graphics/SVG/1.1/DTD/svg11.dtd">
<svg xmlns="http://www.w3.org/2000/svg" xmlns:xlink="http://www.w3.org/1999/xlink" version="1.1" id="Capa_1" x="0px" y="0px" width="512px" height="512px" viewBox="0 0 413.112 413.112" style="enable-background:new 0 0 413.112 413.112;" xml:space="preserve">
<g>
	<g>
		<path d="M289.533,49.621c-66.142-66.156-173.765-66.156-239.916,0c-66.156,66.137-66.156,173.765,0,239.907    c63.874,63.883,166.428,66.058,232.972,6.562l13.44,13.446c-3.351,8.587-1.596,18.678,5.32,25.59l70.978,70.981    c9.334,9.334,24.465,9.334,33.785,0c9.334-9.315,9.334-24.446,0-33.78l-70.978-70.968c-6.916-6.917-17.025-8.672-25.594-5.32    l-13.446-13.455C355.614,216.04,353.42,113.485,289.533,49.621z M69.886,269.268c-54.969-54.969-54.969-144.414,0-199.382    c54.969-54.974,144.418-54.969,199.387,0s54.969,144.414,0,199.382S124.855,324.237,69.886,269.268z" fill="#333333"/>
		<path d="M156.955,205.301L142.249,190.6l40.618-40.622c19.14,11.261,44.197,8.75,60.616-7.659    c19.447-19.453,19.447-51.133,0-70.585c-19.462-19.457-51.138-19.457-70.59,0c-16.41,16.409-18.916,41.467-7.664,60.602    l-71.994,71.985c-3.253,3.248-3.253,8.513,0,11.761l5.88,5.871c3.248,3.258,8.508,3.258,11.756,0l13.726-13.716l14.71,14.706    c3.249,3.258,8.518,3.248,11.761,0l5.885-5.876C160.203,213.814,160.203,208.554,156.955,205.301z M184.654,83.495    c12.975-12.97,34.084-12.97,47.049,0c12.975,12.979,12.975,34.079,0,47.054c-12.97,12.97-34.074,12.979-47.049,0    C171.675,117.579,171.675,96.474,184.654,83.495z" fill="#333333"/>
		<g>
			<path d="M111.456,247.846l4.984,17.081l4.536-15.877c0.485-1.662,0.845-2.791,1.078-3.397c0.238-0.607,0.677-1.186,1.316-1.736     c0.639-0.542,1.526-0.831,2.646-0.831c1.139,0,2.03,0.289,2.679,0.831c0.644,0.551,1.092,1.147,1.358,1.792     c0.261,0.653,0.625,1.755,1.092,3.342l4.536,15.877l5.041-17.081c0.336-1.232,0.607-2.119,0.812-2.675     c0.206-0.56,0.551-1.045,1.036-1.465c0.49-0.42,1.186-0.626,2.101-0.626c0.915,0,1.703,0.309,2.38,0.943     c0.672,0.644,1.008,1.381,1.008,2.249c0,0.784-0.294,1.97-0.868,3.557l-6.25,18.313c-0.541,1.54-0.961,2.67-1.26,3.351     c-0.304,0.678-0.77,1.293-1.414,1.858c-0.645,0.536-1.526,0.812-2.651,0.812c-1.152,0-2.067-0.299-2.726-0.877     c-0.663-0.569-1.152-1.298-1.475-2.119c-0.317-0.84-0.663-1.928-1.036-3.285l-4.368-14.897l-4.229,14.897     c-0.56,2.081-1.167,3.64-1.82,4.681c-0.653,1.06-1.801,1.577-3.444,1.577c-0.845,0-1.554-0.158-2.142-0.49     c-0.588-0.336-1.083-0.793-1.475-1.399c-0.392-0.607-0.733-1.321-1.036-2.156c-0.299-0.831-0.527-1.493-0.695-1.975     l-6.188-18.313c-0.616-1.718-0.924-2.902-0.924-3.557c0-0.821,0.327-1.559,0.98-2.212c0.654-0.653,1.457-0.979,2.409-0.979     c1.269,0,2.128,0.359,2.576,1.087C110.471,244.877,110.952,246.105,111.456,247.846z" fill="#333333"/>
			<path d="M158.075,247.846l4.985,17.081l4.536-15.877c0.49-1.662,0.845-2.791,1.078-3.397c0.238-0.607,0.677-1.186,1.316-1.736     c0.64-0.542,1.526-0.831,2.646-0.831c1.139,0,2.035,0.289,2.679,0.831c0.645,0.551,1.092,1.147,1.358,1.792     c0.261,0.653,0.625,1.755,1.092,3.342l4.537,15.877l5.041-17.081c0.336-1.232,0.606-2.119,0.812-2.675     c0.206-0.56,0.551-1.045,1.041-1.465c0.485-0.42,1.181-0.626,2.096-0.626c0.915,0,1.708,0.309,2.38,0.943     c0.672,0.644,1.008,1.381,1.008,2.249c0,0.784-0.289,1.97-0.868,3.557l-6.25,18.313c-0.537,1.54-0.957,2.67-1.26,3.351     c-0.303,0.691-0.77,1.293-1.414,1.858c-0.644,0.536-1.526,0.812-2.646,0.812c-1.158,0-2.072-0.299-2.73-0.877     c-0.658-0.569-1.153-1.298-1.47-2.119c-0.322-0.84-0.667-1.928-1.041-3.285l-4.369-14.889l-4.228,14.897     c-0.56,2.077-1.167,3.636-1.82,4.686s-1.801,1.578-3.444,1.578c-0.845,0-1.554-0.159-2.142-0.495     c-0.588-0.341-1.083-0.793-1.47-1.4c-0.392-0.606-0.737-1.315-1.041-2.156c-0.299-0.83-0.527-1.498-0.695-1.969l-6.189-18.314     c-0.616-1.717-0.924-2.902-0.924-3.556c0-0.821,0.327-1.56,0.98-2.212c0.653-0.658,1.456-0.98,2.408-0.98     c1.274,0,2.128,0.354,2.576,1.087C157.09,244.877,157.576,246.105,158.075,247.846z" fill="#333333"/>
			<path d="M204.699,247.846l4.984,17.081l4.537-15.877c0.499-1.662,0.85-2.791,1.092-3.397c0.233-0.607,0.677-1.186,1.307-1.736     c0.635-0.542,1.521-0.831,2.656-0.831c1.129,0,2.029,0.289,2.674,0.831c0.648,0.551,1.097,1.147,1.358,1.792     c0.261,0.653,0.625,1.755,1.092,3.342l4.536,15.877l5.041-17.081c0.336-1.232,0.606-2.119,0.812-2.675     c0.21-0.56,0.551-1.045,1.046-1.465c0.49-0.42,1.186-0.626,2.091-0.626c0.91,0,1.703,0.309,2.38,0.943     c0.682,0.644,1.008,1.381,1.008,2.249c0,0.784-0.294,1.97-0.872,3.557l-6.254,18.313c-0.532,1.54-0.952,2.67-1.261,3.351     c-0.299,0.691-0.766,1.293-1.409,1.858c-0.653,0.536-1.53,0.812-2.655,0.812c-1.158,0-2.082-0.299-2.721-0.877     c-0.668-0.569-1.158-1.298-1.48-2.119c-0.312-0.84-0.672-1.928-1.045-3.285l-4.368-14.897l-4.229,14.897     c-0.561,2.081-1.167,3.64-1.815,4.681c-0.653,1.06-1.802,1.577-3.444,1.577c-0.84,0-1.554-0.158-2.143-0.49     c-0.588-0.336-1.078-0.793-1.47-1.399c-0.392-0.607-0.737-1.321-1.041-2.156c-0.299-0.831-0.527-1.493-0.695-1.975l-6.188-18.313     c-0.616-1.718-0.924-2.902-0.924-3.557c0-0.821,0.326-1.559,0.98-2.212c0.653-0.653,1.456-0.979,2.408-0.979     c1.274,0,2.128,0.359,2.576,1.087C203.714,244.877,204.2,246.105,204.699,247.846z" fill="#333333"/>
		</g>
	</g>
</g>
<g>
</g>
<g>
</g>
<g>
</g>
<g>
</g>
<g>
</g>
<g>
</g>
<g>
</g>
<g>
</g>
<g>
</g>
<g>
</g>
<g>
</g>
<g>
</g>
<g>
</g>
<g>
</g>
<g>
</g>
</svg>
